<svg width="1014"
     height="963"
     style="display: block; touch-action: none; cursor: -webkit-grab;">
<rect fill="#616264"
      x="0"
      y="0"
      width="1014"
      height="963"
      style="pointer-events: none;" />
<g transform="matrix(1.1146774862163502,0,0,1.1146774862163502,-1967.0680313241328,-115.49219515381664)"
   style="pointer-events: none;">
<rect fill="#fff"
      x="0"
      y="0"
      width="4650"
      height="2100" />
<g>
<metadata pagecolor="#ffffff"
          objecttolerance="10"
          gridtolerance="10"
          guidetolerance="10"
          id="namedview2312"
          showgrid="false" />
<g class="viewport"
   id="map-layer">
<line class="st5"
      x1="2343.8"
      y1="419.4"
      x2="2343.8"
      y2="1769.7"
      id="path24" />
<line class="st5"
      x1="2193.6"
      y1="1394.3"
      x2="2193.6"
      y2="1769.7"
      id="path24" />
<circle id="low"
        r="75"
        cx="2268"
        cy="1769"
        stroke="#ffcc29"
        stroke-width="30"
        stroke-dasharray="230, 600"
        fill="none" />
<polyline xmlns="http://www.w3.org/2000/svg"
          class="st2-disabled"
          points="2193.6,1394.3 2118.5,1319.2 2118.5,1169.1 1969.5,1018.9 1894.4,719.7 1819.3,569.5  "
          id="polyline18" />
<polyline xmlns="http://www.w3.org/2000/svg"
          class="st2-disabled"
          points="1819.3,569.5 1669.2,494.4 1594.1,419.4 1443.9,306.7 1293.8,194.1 1293.8,120.1  "
          id="polyline72" />
<line id="train101"
      opacity="0.5"
      class="train1"
      x1="2343"
      y1="399"
      x2="2343"
      y2="439"
      name="Lawrence"
      style="transform: translateX(0px) translateY(437.592px) rotate(0deg); transform-origin: 2268px 419px;"
      transform-origin="2268px 419px" />
<line id="train101"
      opacity="0.5"
      class="train1"
      x1="2343"
      y1="412.1655256000256"
      x2="2343"
      y2="439"
      name="Finch"
      style="transform: translateX(0px) translateY(6.20422px) rotate(0deg); transform-origin: 2268px 419px;"
      transform-origin="2268px 419px" />
<circle xmlns="http://www.w3.org/2000/svg"
        class="st8"
        cx="2343.8"
        cy="569.5"
        r="13.9"
        id="circle983" />
<circle xmlns="http://www.w3.org/2000/svg"
        class="st8"
        cx="2343.8"
        cy="1018.9"
        r="13.9"
        id="circle893" />
<circle class="st17"
        cx="2343.8"
        cy="419.4"
        r="10.7"
        id="circle791" />
<circle class="st17"
        cx="2343.8"
        cy="494.4"
        r="10.7"
        id="circle793" />
<circle class="st17"
        cx="2343.8"
        cy="719.7"
        r="10.7"
        id="circle795" />
<circle class="st17"
        cx="2343.8"
        cy="869.8"
        r="10.7"
        id="circle797" />
<circle class="st17"
        cx="2343.8"
        cy="1094"
        r="10.7"
        id="circle799" />
<circle class="st17"
        cx="2343.8"
        cy="1169.1"
        r="10.7"
        id="circle801" />
<circle class="st17"
        cx="2343.8"
        cy="1244.1"
        r="10.7"
        id="circle803" />
<circle class="st17"
        cx="2343.8"
        cy="1319.2"
        r="10.7"
        id="circle805" />
<circle class="st17"
        cx="2193.6"
        cy="1469.4"
        r="10.7"
        id="circle809" />
<circle class="st17"
        cx="2343.8"
        cy="1469.4"
        r="10.7"
        id="circle811" />
<circle class="st17"
        cx="2193.6"
        cy="1544.4"
        r="10.7"
        id="circle813" />
<circle class="st17"
        cx="2343.8"
        cy="1544.4"
        r="10.7"
        id="circle815" />
<circle class="st17"
        cx="2193.6"
        cy="1619.5"
        r="10.7"
        id="circle817" />
<circle class="st17"
        cx="2343.8"
        cy="1619.5"
        r="10.7"
        id="circle819" />
<circle class="st17"
        cx="2193.6"
        cy="1694.6"
        r="10.7"
        id="circle821" />
<circle class="st17"
        cx="2343.8"
        cy="1694.6"
        r="10.7"
        id="circle823" />
<circle class="st17"
        cx="2193.6"
        cy="1769.7"
        r="10.7"
        id="circle825" />
<circle class="st17"
        cx="2343.8"
        cy="1769.7"
        r="10.7"
        id="circle827" />
<circle class="st17"
        cx="2268.7"
        cy="1844.7"
        r="10.7"
        id="circle829" />
<circle class="st16"
        cx="1293.8"
        cy="120.1"
        r="10.7"
        id="circle721" />
<circle class="st16"
        cx="1293.8"
        cy="194.1"
        r="10.7"
        id="circle723" />
<circle class="st16"
        cx="1394.6"
        cy="269.2"
        r="10.7"
        id="circle725" />
<circle class="st16"
        cx="1494.3"
        cy="344.3"
        r="10.7"
        id="circle727" />
<circle class="st16"
        cx="1669.2"
        cy="494.4"
        r="10.7"
        id="circle729" />
<circle class="st17"
        cx="1819.3"
        cy="569.5"
        r="10.7"
        id="circle731" />
<circle class="st17"
        cx="1894.4"
        cy="719.7"
        r="10.7"
        id="circle733" />
<circle class="st17"
        cx="1912.6"
        cy="794.7"
        r="10.7"
        id="circle735" />
<circle class="st17"
        cx="1931.9"
        cy="869.8"
        r="10.7"
        id="circle737" />
<circle class="st17"
        cx="1950.2"
        cy="944.9"
        r="10.7"
        id="circle739" />
<circle class="st17"
        cx="2118.5"
        cy="1169.1"
        r="10.7"
        id="circle741" />
<circle class="st17"
        cx="2118.5"
        cy="1244.1"
        r="10.7"
        id="circle743" />
<circle xmlns="http://www.w3.org/2000/svg"
        class="st17"
        cx="1969.5"
        cy="1018.9"
        r="10.7"
        id="circle895" />
<circle xmlns="http://www.w3.org/2000/svg"
        class="st17"
        cx="2118.5"
        cy="1319.2"
        r="10.7"
        id="circle432" />
<circle xmlns="http://www.w3.org/2000/svg"
        class="st17"
        cx="1594.1"
        cy="419.4"
        r="10.7"
        id="circle1064" />
<polyline xmlns="http://www.w3.org/2000/svg"
          class="st1-invalid"
          points="1143.6,1394.3 2122.8,1394.3 3093.5,1394.3  "
          id="polyline16" />
<polyline xmlns="http://www.w3.org/2000/svg"
          class="st1-invalid"
          points="3093.5,1394.3 3168.5,1356.7 3393.8,1169.1 3619,1018.9  "
          id="polyline14" />
<line xmlns="http://www.w3.org/2000/svg"
      class="st1-invalid"
      x1="1144.7"
      y1="1394.3"
      x2="769.3"
      y2="1394.3"
      id="line1239" />
<line xmlns="http://www.w3.org/2000/svg"
      class="st1-invalid"
      x1="769.3"
      y1="1394.3"
      x2="694.2"
      y2="1431.8"
      id="line616" />
<line opacity="0.5"
      class="train2"
      x1="2325"
      y1="569.5"
      x2="2365"
      y2="569.5" />
<circle class="st17"
        cx="2044.5"
        cy="1394.3"
        r="10.7"
        id="circle745" />
<circle class="st17"
        cx="1969.5"
        cy="1394.3"
        r="10.7"
        id="circle747" />
<circle class="st17"
        cx="2044.5"
        cy="1394.3"
        r="10.7"
        id="circle749" />
<circle class="st17"
        cx="1819.3"
        cy="1394.3"
        r="10.7"
        id="circle751" />
<circle class="st17"
        cx="1894.4"
        cy="1394.3"
        r="10.7"
        id="circle753" />
<circle class="st17"
        cx="1669.2"
        cy="1394.3"
        r="10.7"
        id="circle755" />
<circle class="st17"
        cx="1744.2"
        cy="1394.3"
        r="10.7"
        id="circle757" />
<circle class="st17"
        cx="1519"
        cy="1394.3"
        r="10.7"
        id="circle759" />
<circle class="st17"
        cx="1594.1"
        cy="1394.3"
        r="10.7"
        id="circle761" />
<circle class="st17"
        cx="1293.8"
        cy="1394.3"
        r="10.7"
        id="circle763" />
<circle class="st17"
        cx="1443.9"
        cy="1394.3"
        r="10.7"
        id="circle765" />
<circle class="st17"
        cx="694.2"
        cy="1431.8"
        r="10.7"
        id="circle767" />
<circle class="st17"
        cx="2943.3"
        cy="1394.3"
        r="10.7"
        id="circle769" />
<circle class="st17"
        cx="3018.4"
        cy="1394.3"
        r="10.7"
        id="circle771" />
<circle class="st17"
        cx="2869.3"
        cy="1394.3"
        r="10.7"
        id="circle773" />
<circle class="st17"
        cx="2794.2"
        cy="1394.3"
        r="10.7"
        id="circle775" />
<circle class="st17"
        cx="2644.1"
        cy="1394.3"
        r="10.7"
        id="circle777" />
<circle class="st17"
        cx="2719.2"
        cy="1394.3"
        r="10.7"
        id="circle779" />
<circle class="st17"
        cx="2569"
        cy="1394.3"
        r="10.7"
        id="circle781" />
<circle class="st17"
        cx="2418.8"
        cy="1394.3"
        r="10.7"
        id="circle783" />
<circle class="st17"
        cx="2493.9"
        cy="1394.3"
        r="10.7"
        id="circle785" />
<circle class="st17"
        cx="3093.5"
        cy="1394.3"
        r="10.7"
        id="circle787" />
<circle xmlns="http://www.w3.org/2000/svg"
        class="st17"
        cx="2268.7"
        cy="1394.3"
        r="10.7"
        id="circle807" />
<circle xmlns="http://www.w3.org/2000/svg"
        class="st8"
        cx="2118.5"
        cy="1394.3"
        r="13.9"
        id="circle434" />
<circle xmlns="http://www.w3.org/2000/svg"
        class="st17"
        cx="1144.7"
        cy="1394.3"
        r="10.7"
        id="circle1245" />
<circle xmlns="http://www.w3.org/2000/svg"
        class="st17"
        cx="994.5"
        cy="1394.3"
        r="10.7"
        id="circle1251" />
<circle xmlns="http://www.w3.org/2000/svg"
        class="st17"
        cx="769.3"
        cy="1394.3"
        r="10.7"
        id="circle1247" />
<circle xmlns="http://www.w3.org/2000/svg"
        class="st17"
        cx="3168.5"
        cy="1356.7"
        r="10.7"
        id="circle843" />
<circle xmlns="http://www.w3.org/2000/svg"
        class="st17"
        cx="3393.8"
        cy="1169.1"
        r="10.7"
        id="circle789" />
<circle xmlns="http://www.w3.org/2000/svg"
        class="st8"
        cx="3619"
        cy="1018.9"
        r="13.9"
        id="circle2129" />
<circle xmlns="http://www.w3.org/2000/svg"
        class="st8"
        cx="2343.8"
        cy="1394.3"
        r="13.9"
        id="circle534" />
<circle xmlns="http://www.w3.org/2000/svg"
        class="st8"
        cx="2193.6"
        cy="1394.3"
        r="13.9"
        id="circle536" />
<line class="st25"
      x1="2868.2"
      y1="569.5"
      x2="2343.8"
      y2="569.5"
      id="line965" />
<line opacity="0.5"
      class="train4"
      x1="2325"
      y1="569.5"
      x2="2365"
      y2="569.5"
      name="Bayview"
      style="transform: translateX(224px); transform-origin: 2345px 569.5px;"
      transform-origin="2345px 569.5px" />
<line opacity="0.5"
      class="train4"
      x1="2325"
      y1="569.5"
      x2="2365"
      y2="569.5"
      name="Sheppard-East"
      style="transform: translateX(185.455px); transform-origin: 2345px 569.5px;"
      transform-origin="2345px 569.5px" />
<circle class="st26"
        cx="2569"
        cy="569.5"
        r="13.9"
        id="circle969" />
<circle class="st26"
        cx="2681.6"
        cy="569.5"
        r="13.9"
        id="circle971" />
<circle class="st26"
        cx="2794.2"
        cy="569.5"
        r="13.9"
        id="circle973" />
<circle class="st17"
        cx="2569"
        cy="569.5"
        r="10.7"
        id="circle975" />
<circle class="st17"
        cx="2681.6"
        cy="569.5"
        r="10.7"
        id="circle977" />
<circle class="st17"
        cx="2794.2"
        cy="569.5"
        r="10.7"
        id="circle979" />
<circle class="st26"
        cx="2868.2"
        cy="569.5"
        r="13.9"
        id="circle2303" />
<circle class="st17"
        cx="2868.3"
        cy="569.5"
        r="10.7"
        id="circle2305" />
<circle xmlns="http://www.w3.org/2000/svg"
        class="st8"
        cx="2343.8"
        cy="569.5"
        r="13.9"
        id="circle983" />
</g>
</g>
</g>
</svg>